<?xml version="1.0" standalone="no"?>
<!DOCTYPE svg PUBLIC "-//W3C//DTD SVG 20010904//EN"
 "http://www.w3.org/TR/2001/REC-SVG-20010904/DTD/svg10.dtd">
<svg version="1.0" xmlns="http://www.w3.org/2000/svg"
 width="259.000000pt" height="194.000000pt" viewBox="0 0 259.000000 194.000000"
 preserveAspectRatio="xMidYMid meet">
<metadata>
Created by potrace 1.16, written by Peter Selinger 2001-2019
</metadata>
<g transform="translate(0.000000,194.000000) scale(0.100000,-0.100000)"
fill="#000000" stroke="none">
<path d="M1620 1607 c-74 -29 -182 -134 -257 -252 -58 -90 -77 -144 -76 -215
0 -129 38 -157 233 -174 69 -6 131 -15 138 -19 24 -16 -15 -43 -136 -95 -222
-95 -378 -125 -498 -97 -80 18 -118 44 -144 95 -27 53 -27 160 0 241 20 60
102 232 121 255 6 7 5 15 -3 21 -20 15 -44 27 -35 18 4 -5 -1 -18 -11 -29 -60
-68 -157 -266 -177 -362 -17 -82 -19 -228 -4 -289 25 -99 119 -164 255 -179
168 -18 500 86 617 193 57 53 112 164 126 256 16 106 13 144 -15 171 -22 23
-30 24 -149 24 -147 0 -195 13 -195 54 0 49 156 154 244 163 47 6 63 -7 95
-73 l20 -39 22 50 c32 71 39 197 13 227 -12 14 -13 18 -4 13 13 -8 12 -5 -1
15 -35 54 -90 62 -179 27z"/>
<path d="M1349 450 c-18 -33 -38 -60 -44 -60 -5 0 -39 16 -75 35 -35 19 -67
35 -71 35 -13 0 -81 -132 -73 -140 12 -12 134 -80 143 -80 4 0 24 29 45 65 21
36 40 65 44 65 3 0 34 -16 69 -35 35 -19 70 -35 78 -35 8 0 30 31 49 68 l34
68 -74 37 c-41 20 -78 37 -82 37 -5 0 -24 -27 -43 -60z"/>
</g>
</svg>
