<?xml version="1.0" standalone="no"?>
<!DOCTYPE svg PUBLIC "-//W3C//DTD SVG 20010904//EN"
 "http://www.w3.org/TR/2001/REC-SVG-20010904/DTD/svg10.dtd">
<svg version="1.0" xmlns="http://www.w3.org/2000/svg"
 width="225.000000pt" height="225.000000pt" viewBox="0 0 225.000000 225.000000"
 preserveAspectRatio="xMidYMid meet">
<metadata>
Created by potrace 1.16, written by Peter Selinger 2001-2019
</metadata>
<g transform="translate(0.000000,225.000000) scale(0.100000,-0.100000)"
fill="#000000" stroke="none">
<path d="M1086 1686 c-49 -18 -87 -55 -121 -117 -44 -81 -13 -112 56 -57 67
54 132 43 217 -36 17 -16 32 -33 32 -37 0 -3 -30 -9 -68 -13 -73 -7 -186 -34
-243 -58 -85 -37 -145 -125 -156 -232 -6 -56 7 -113 99 -429 59 -205 73 -213
73 -42 -1 85 -6 120 -37 230 -48 169 -55 224 -33 258 40 62 216 107 418 107
l127 0 0 91 c0 84 -2 93 -30 134 -47 69 -129 154 -174 180 -53 31 -111 39
-160 21z"/>
</g>
</svg>
