<?xml version="1.0" standalone="no"?>
<!DOCTYPE svg PUBLIC "-//W3C//DTD SVG 20010904//EN"
 "http://www.w3.org/TR/2001/REC-SVG-20010904/DTD/svg10.dtd">
<svg version="1.0" xmlns="http://www.w3.org/2000/svg"
 width="245.000000pt" height="205.000000pt" viewBox="0 0 245.000000 205.000000"
 preserveAspectRatio="xMidYMid meet">
<metadata>
Created by potrace 1.16, written by Peter Selinger 2001-2019
</metadata>
<g transform="translate(0.000000,205.000000) scale(0.100000,-0.100000)"
fill="#000000" stroke="none">
<path d="M1133 1836 c-65 -64 -65 -64 -59 -108 4 -23 9 -69 12 -100 l6 -57 51
29 c29 16 73 32 100 35 32 5 52 14 62 28 28 40 20 47 -52 47 -106 0 -143 29
-103 80 16 21 26 25 67 23 28 -1 51 3 55 10 22 34 -6 77 -48 77 -17 0 -46 -20
-91 -64z"/>
<path d="M1170 1383 l-44 -67 2 -171 c2 -93 7 -282 12 -420 5 -137 10 -310 10
-382 0 -73 4 -133 9 -133 16 0 49 82 61 150 13 70 14 674 2 943 l-7 148 -45
-68z"/>
</g>
</svg>
